<?xml version="1.0" encoding="UTF-8"?>
<!DOCTYPE svg PUBLIC "-//W3C//DTD SVG 1.1//EN" "http://www.w3.org/Graphics/SVG/1.1/DTD/svg11.dtd">
<!-- Creator: CorelDRAW X7 -->
<svg xmlns="http://www.w3.org/2000/svg" xml:space="preserve" width="100" height="100" version="1.1" style="shape-rendering:geometricPrecision; text-rendering:geometricPrecision; image-rendering:optimizeQuality; fill-rule:evenodd; clip-rule:evenodd"
viewBox="0 0 67867 29765"
 xmlns:xlink="http://www.w3.org/1999/xlink">
 <defs>
  <style type="text/css">
   <![CDATA[
    .str0 {stroke:#EE5623;stroke-width:298.905}
    .fil3 {fill:none;fill-rule:nonzero}
    .fil0 {fill:#0F7DAE}
    .fil1 {fill:#EE5623}
    .fil2 {fill:#EE5623;fill-rule:nonzero}
   ]]>
  </style>
 </defs>
 <g id="Layer_x0020_1">
  <metadata id="CorelCorpID_0Corel-Layer"/>
  <g id="_556763458208">
   <path class="fil0" d="M67867 26881l0 -11415c0,-2271 -1032,-4583 -3246,-5512 -3731,-1565 -7990,1116 -7990,5436l0 7046 1770 0 0 -7102c0,-5077 7723,-6089 7723,188l0 11359 1743 0z"/>
   <path class="fil0" d="M0 5061l0 11415c0,2270 1032,4582 3246,5511 3731,1566 7991,-1116 7991,-5436l0 -7045 -1771 0 0 7102c0,5077 -7722,6089 -7722,-188l0 -11359 -1744 0z"/>
   <path class="fil0" d="M19352 9506c1841,0 3503,769 4680,2004l0 -6449 1786 0 0 10911c0,3571 -2895,6466 -6466,6466 -3571,0 -6466,-2895 -6466,-6466 0,-3571 2895,-6466 6466,-6466zm0 1644c2663,0 4822,2159 4822,4822 0,2663 -2159,4822 -4822,4822 -2663,0 -4822,-2159 -4822,-4822 0,-2663 2159,-4822 4822,-4822z"/>
   <path class="fil1" d="M40372 15369c-305,-3288 -3070,-5863 -6438,-5863 -3368,0 -6134,2575 -6438,5863l1653 0c297,-2378 2326,-4219 4785,-4219 2459,0 4487,1841 4784,4219l1654 0z"/>
   <path class="fil0" d="M33934 22438c1841,0 3502,-769 4680,-2004l0 1988 1786 0 0 -5847 -1682 0c-297,2378 -2325,4219 -4784,4219 -2459,0 -4488,-1841 -4785,-4219l-1653 0c304,3288 3070,5863 6438,5863z"/>
   <path class="fil1" d="M54953 15369c-304,-3288 -3070,-5863 -6438,-5863 -3368,0 -6134,2575 -6438,5863l1654 0c297,-2378 2325,-4219 4784,-4219 2459,0 4488,1841 4785,4219l1653 0z"/>
   <path class="fil0" d="M48501 22438c1841,0 3503,-769 4680,-2004l0 1988 1786 0 0 -5847 -1682 0c-296,2378 -2325,4219 -4784,4219 -2459,0 -4488,-1841 -4784,-4219l-1654 0c304,3288 3070,5863 6438,5863z"/>
   <path class="fil0" d="M42296 7709c237,-1267 161,-2369 -316,-3381 -139,-295 -528,-788 -789,-986 -305,-224 -498,-383 -845,-530l-1362 -557c-10,-4 -21,-8 -31,-12l-835 -369c-481,-214 -978,-453 -1403,-766 -174,-127 -288,-261 -422,-414 -170,-196 -319,-430 -349,-694 352,174 680,473 1032,662 556,300 1639,597 2202,786 700,235 1525,487 2178,872l168 103c185,114 445,250 596,407 695,681 543,510 1043,1403 193,466 333,1344 153,1851 239,-8 272,-120 390,-312 551,-1176 711,-1608 -110,-2826 -409,-693 -756,-1020 -614,-1867 65,-389 627,-1048 338,-427 -275,592 229,1296 596,1733 5,6 15,15 20,21 203,225 403,447 549,713 315,571 367,1231 270,1879 -100,670 -475,1536 -1007,2015 -444,401 -842,586 -1452,696z"/>
   <path class="fil0" d="M47084 8280c-27,-181 -125,-255 -222,-393 -717,-846 -1105,-571 -2024,-313 104,-222 325,-371 543,-474 1426,-672 2104,859 2564,1894 -238,-61 -492,-209 -745,-292 -689,-225 -1579,-413 -2239,-11l-232 140c-403,265 -834,594 -1262,816 -492,255 -1325,539 -1890,469 -282,-34 -592,-108 -765,-182 -334,-144 -640,-372 -943,-563l-106 -73c-107,-79 26,1 -104,-76 -392,-232 -781,-490 -1217,-680 -454,-198 -1240,-389 -1814,-323 -302,65 -486,105 -769,201l-1479 501c-195,66 -385,141 -564,245l768 -608c284,-224 421,-338 766,-480 741,-305 1501,-556 2324,-496 483,35 1073,134 1489,307l479 216c1456,721 2001,1583 3794,731 20,-10 68,-31 101,-45 386,-169 744,-351 1135,-496 64,-24 129,-47 196,-68 1362,-442 1641,-2 2216,53z"/>
   <path class="fil1" d="M36878 3446l-63 -204c-49,-216 42,-101 143,54 287,440 611,870 1030,1194 520,402 765,518 924,557 150,37 223,5 379,80 -28,154 -92,137 -238,114 -1074,-164 -1858,-686 -2175,-1795z"/>
   <path class="fil1" d="M36331 1481c-76,-236 -1,-190 19,-221 188,377 555,893 944,1302 594,628 656,465 1275,797 344,185 -1610,258 -2238,-1878z"/>
   <path class="fil1" d="M39507 6855c-77,37 -191,30 -299,18 -122,-13 -219,-27 -335,-75 -390,-159 -688,-555 -864,-939 -44,-95 -62,-158 -87,-258l-79 -316c172,132 390,685 652,953 416,425 888,536 1012,617z"/>
   <path class="fil2" d="M14051 24191l0 882 1135 0 0 254 -1135 0 0 1952c0,213 63,361 188,445 125,85 263,139 412,163 44,5 87,8 130,11 44,2 85,3 123,3 10,0 21,0 33,0 12,0 25,0 40,0 14,0 29,-1 43,-3 15,-3 27,-4 36,-4 29,0 54,-1 76,-3 22,-3 40,-4 54,-4l0 253 -672 0c-20,0 -38,0 -54,0 -17,0 -36,-2 -55,-7 -164,-24 -314,-104 -452,-239 -137,-135 -206,-340 -206,-615l0 -3088 304 0z"/>
   <path id="1" class="fil2" d="M15859 23583l0 1895c96,-154 242,-273 438,-358 195,-84 401,-126 618,-126 10,0 19,0 29,0 10,0 19,0 29,0 284,14 545,116 781,304 236,188 354,487 354,896l0 1946 -253 0 0 -1794c0,-308 -73,-572 -220,-792 -147,-219 -363,-329 -648,-329l-115 0c-367,0 -627,111 -782,333 -154,222 -231,501 -231,839l0 1743 -260 0 0 -4557 260 0z"/>
   <path id="2" class="fil2" d="M21175 25681c-101,-121 -233,-219 -394,-297 -162,-77 -327,-123 -496,-137 -24,-5 -47,-7 -68,-7 -22,0 -42,0 -62,0 -5,0 -11,0 -18,0 -7,0 -13,0 -18,0 -260,5 -509,94 -745,267 -236,174 -405,454 -506,839 0,15 -1,30 -4,47 -2,17 -3,35 -3,55 -5,19 -9,37 -11,54 -3,17 -4,32 -4,47 0,58 4,118 11,181 7,62 20,125 40,188 58,241 171,463 340,665 168,203 385,321 651,355 14,0 30,1 47,3 17,3 32,6 47,11 48,5 95,10 141,15 46,4 90,7 134,7 400,0 696,-114 889,-340 193,-227 321,-550 383,-969l268 0c0,501 -158,884 -474,1150 -316,265 -671,397 -1066,397 -54,0 -107,-2 -160,-7 -53,-5 -106,-12 -159,-21 -169,-29 -336,-86 -502,-170 -167,-85 -322,-195 -467,-330 -10,-14 -20,-30 -32,-47 -13,-16 -23,-35 -33,-54 -87,-135 -165,-294 -235,-477 -70,-183 -105,-374 -105,-572 0,-82 9,-167 25,-256 17,-90 43,-178 76,-264 44,-111 103,-221 178,-329 74,-109 169,-211 285,-308 101,-87 208,-157 318,-210 111,-53 222,-91 333,-115 63,-15 126,-26 188,-33 63,-7 126,-11 188,-11 314,0 602,71 865,214 262,142 442,297 538,466 5,10 9,18 11,26 3,7 6,13 11,18l-2199 1547 -152 -260 1946 -1338z"/>
   <path id="3" class="fil2" d="M28017 25681c-101,-121 -232,-219 -394,-297 -161,-77 -327,-123 -495,-137 -24,-5 -47,-7 -69,-7 -22,0 -42,0 -62,0 -4,0 -10,0 -18,0 -7,0 -13,0 -18,0 -260,5 -508,94 -745,267 -236,174 -405,454 -506,839 0,15 -1,30 -4,47 -2,17 -3,35 -3,55 -5,19 -9,37 -11,54 -2,17 -4,32 -4,47 0,58 4,118 11,181 7,62 21,125 40,188 58,241 171,463 340,665 169,203 386,321 651,355 14,0 30,1 47,3 17,3 32,6 47,11 48,5 95,10 141,15 46,4 90,7 134,7 400,0 696,-114 889,-340 193,-227 321,-550 384,-969l267 0c0,501 -158,884 -474,1150 -315,265 -671,397 -1066,397 -53,0 -106,-2 -159,-7 -53,-5 -106,-12 -160,-21 -168,-29 -336,-86 -502,-170 -167,-85 -322,-195 -467,-330 -9,-14 -20,-30 -32,-47 -12,-16 -23,-35 -33,-54 -87,-135 -165,-294 -235,-477 -70,-183 -105,-374 -105,-572 0,-82 9,-167 26,-256 16,-90 42,-178 75,-264 44,-111 103,-221 178,-329 74,-109 170,-211 285,-308 102,-87 208,-157 319,-210 111,-53 221,-91 332,-115 63,-15 126,-26 188,-33 63,-7 126,-11 188,-11 314,0 602,71 865,214 263,142 442,297 539,466 4,10 8,18 10,26 3,7 6,13 11,18l-2198 1547 -152 -260 1945 -1338z"/>
   <path id="4" class="fil2" d="M29413 25073l0 1895c0,357 101,627 304,810 202,184 424,275 665,275 15,0 31,0 47,0 17,0 33,-2 47,-7 237,-24 452,-129 648,-315 195,-185 293,-440 293,-763l0 -1895 253 0 0 1946c0,400 -127,700 -380,900 -253,201 -532,305 -835,315 -10,0 -18,0 -26,0 -7,0 -13,0 -18,0 -5,0 -8,0 -11,0 -2,0 -6,0 -10,0 -309,-5 -591,-107 -847,-307 -255,-200 -383,-503 -383,-908l0 -1946 253 0z"/>
   <path id="5" class="fil2" d="M32639 29616l-260 0 0 -3168c0,-78 7,-159 21,-246 15,-87 36,-174 65,-261 82,-231 231,-446 445,-643 215,-198 517,-307 908,-326 482,0 852,153 1110,459 258,307 399,645 423,1017 5,19 7,38 7,57 0,20 0,39 0,58 0,92 -6,200 -18,326 -12,125 -42,255 -90,390 -68,198 -187,384 -358,557 -171,174 -428,290 -770,348 -20,0 -40,1 -62,3 -21,2 -44,4 -69,4 -24,0 -47,1 -68,3 -22,3 -42,4 -62,4 -33,0 -68,-1 -105,-4 -36,-2 -71,-6 -104,-10 -145,-20 -284,-60 -416,-120 -133,-60 -247,-153 -344,-278l0 -253c24,24 54,51 90,83 37,31 76,61 120,90 67,48 143,97 228,145 84,48 170,84 256,108 44,15 86,26 127,33 41,7 81,11 119,11 5,0 10,0 15,0 5,0 9,-3 14,-8 5,0 9,0 11,0 3,0 4,0 4,0 9,0 18,-1 25,-3 7,-3 13,-4 18,-4 342,-43 623,-188 843,-434 219,-246 329,-559 329,-940l0 -116c0,-62 -6,-130 -18,-202 -12,-73 -30,-145 -54,-217 -73,-212 -205,-408 -398,-586 -193,-179 -461,-268 -803,-268 -362,0 -643,115 -843,344 -200,229 -312,522 -336,879l0 3168z"/>
   <path id="6" class="fil2" d="M36241 23583l0 1895c96,-154 242,-273 437,-358 196,-84 402,-126 619,-126 9,0 19,0 29,0 9,0 19,0 29,0 284,14 545,116 781,304 236,188 354,487 354,896l0 1946 -253 0 0 -1794c0,-308 -73,-572 -221,-792 -147,-219 -362,-329 -647,-329l-116 0c-366,0 -626,111 -781,333 -154,222 -231,501 -231,839l0 1743 -261 0 0 -4557 261 0z"/>
   <path id="7" class="fil2" d="M40588 24972c511,0 895,170 1153,510 258,340 387,717 387,1132 0,395 -136,756 -408,1081 -273,326 -672,489 -1197,489l-87 7c-444,-15 -790,-187 -1038,-517 -248,-331 -373,-694 -373,-1089 0,-14 0,-29 0,-43 0,-15 0,-29 0,-44 20,-371 157,-713 413,-1027 255,-313 639,-480 1150,-499zm-102 2966c5,0 10,0 15,0 5,0 10,2 14,7 5,0 9,0 11,0 3,0 4,0 4,0 9,0 18,1 25,3 7,3 13,4 18,4 391,0 692,-130 904,-391 213,-260 323,-544 333,-853 0,-10 0,-18 0,-25 0,-8 0,-14 0,-18l0 -102c0,-14 0,-29 0,-43 0,-15 0,-29 0,-43 -19,-304 -125,-584 -318,-839 -193,-256 -461,-393 -803,-413l-58 0c-424,0 -749,135 -973,405 -224,270 -346,567 -365,890 0,14 0,28 0,40 0,12 0,25 0,40 0,4 0,9 0,14 0,5 0,7 0,7 5,309 107,594 307,857 201,263 496,416 886,460z"/>
   <path id="8" class="fil2" d="M43018 25073l0 557c82,-144 193,-260 333,-347 139,-87 284,-144 434,-173 53,-15 104,-25 155,-29 51,-5 100,-8 148,-8l167 0 0 254 -116 0c-294,0 -554,102 -781,307 -227,205 -340,515 -340,929l0 1577 -253 0 0 -3067 253 0z"/>
   <path id="9" class="fil2" d="M45079 25073l0 3067 -260 0 0 -3067 260 0zm51 -882c0,77 -21,131 -62,163 -41,31 -88,47 -141,47 -53,0 -101,-16 -144,-47 -44,-32 -65,-86 -65,-163 0,-77 21,-134 65,-170 43,-36 91,-54 144,-54 53,0 100,18 141,54 41,36 62,93 62,170z"/>
   <path id="10" class="fil2" d="M47958 25023l0 253 -268 0c-516,0 -900,133 -1153,398 -253,265 -380,557 -380,875 0,14 0,28 0,40 0,12 0,25 0,39 19,324 155,620 409,890 253,270 601,405 1045,405 33,0 70,-2 108,-7 39,-5 80,-10 123,-15 5,0 10,0 15,0 4,0 9,0 14,0 15,-4 29,-8 43,-10 15,-3 29,-4 44,-4l0 253c-19,0 -42,1 -69,4 -26,2 -52,3 -76,3 -14,0 -28,0 -40,0 -12,0 -22,3 -32,8 -19,0 -37,0 -54,0 -17,0 -33,0 -47,0 -92,0 -191,-5 -297,-15 -106,-10 -212,-29 -318,-58 -275,-67 -527,-208 -756,-423 -229,-214 -351,-563 -365,-1045 0,-598 164,-1010 492,-1237 327,-226 689,-349 1085,-369 19,0 38,0 57,0 20,0 39,0 58,0 29,0 59,2 91,4 31,2 61,4 90,4 29,0 59,1 90,3 32,3 62,4 91,4z"/>
   <polygon id="11" class="fil2" points="52211,23533 52211,28140 51950,28140 51950,23533 "/>
   <path id="12" class="fil2" d="M55596 25681c-102,-121 -233,-219 -395,-297 -161,-77 -326,-123 -495,-137 -24,-5 -47,-7 -69,-7 -21,0 -42,0 -61,0 -5,0 -11,0 -18,0 -7,0 -13,0 -18,0 -261,5 -509,94 -745,267 -237,174 -405,454 -507,839 0,15 -1,30 -3,47 -3,17 -4,35 -4,55 -5,19 -8,37 -11,54 -2,17 -3,32 -3,47 0,58 3,118 11,181 7,62 20,125 39,188 58,241 172,463 340,665 169,203 386,321 651,355 15,0 30,1 47,3 17,3 33,6 47,11 48,5 96,10 141,15 46,4 91,7 134,7 400,0 697,-114 890,-340 193,-227 320,-550 383,-969l268 0c0,501 -158,884 -474,1150 -316,265 -671,397 -1067,397 -53,0 -106,-2 -159,-7 -53,-5 -106,-12 -159,-21 -169,-29 -336,-86 -503,-170 -166,-85 -322,-195 -466,-330 -10,-14 -21,-30 -33,-47 -12,-16 -23,-35 -32,-54 -87,-135 -166,-294 -235,-477 -70,-183 -105,-374 -105,-572 0,-82 8,-167 25,-256 17,-90 42,-178 76,-264 43,-111 102,-221 177,-329 75,-109 170,-211 286,-308 101,-87 207,-157 318,-210 111,-53 222,-91 333,-115 62,-15 125,-26 188,-33 62,-7 125,-11 188,-11 313,0 601,71 864,214 263,142 443,297 539,466 5,10 8,18 11,26 2,7 6,13 11,18l-2199 1547 -152 -260 1946 -1338z"/>
   <path id="13" class="fil2" d="M59096 27533l0 303c-120,102 -261,182 -423,243 -161,60 -326,95 -495,105 -10,0 -21,0 -33,0 -12,0 -23,0 -32,0l-152 7c-415,-39 -723,-187 -926,-445 -202,-258 -330,-539 -383,-843 -10,-58 -17,-117 -22,-177 -5,-60 -7,-119 -7,-177 0,-10 0,-19 0,-29 0,-10 2,-17 7,-22 0,-5 0,-9 0,-14 0,-5 0,-10 0,-15 0,-14 1,-27 4,-39 2,-12 3,-23 3,-33 39,-391 150,-692 333,-904 183,-212 383,-357 600,-434 77,-29 155,-51 232,-65 77,-15 152,-22 224,-22 487,0 847,107 1081,322 234,215 382,452 445,712 19,68 32,134 40,199 7,65 11,129 11,192l0 1743 -254 0 0 -1692c0,-319 -77,-564 -231,-738 -154,-174 -323,-299 -506,-376 -97,-39 -192,-66 -286,-83 -94,-17 -177,-26 -250,-26 -255,0 -464,64 -625,192 -162,128 -288,269 -380,423 -63,116 -108,224 -137,326 -29,101 -44,178 -44,231 0,10 0,21 0,33 0,12 0,25 0,39 0,0 0,3 0,8 0,4 0,7 0,7 -4,14 -7,29 -7,43 0,15 0,27 0,36 0,502 124,869 373,1103 248,234 522,351 820,351 39,0 76,-2 113,-7 36,-5 73,-10 112,-15 149,-28 295,-84 437,-166 143,-82 262,-181 358,-296z"/>
   <path id="14" class="fil2" d="M60651 29616l-260 0 0 -3168c0,-78 7,-159 22,-246 14,-87 36,-174 65,-261 82,-231 230,-446 445,-643 214,-198 517,-307 907,-326 482,0 853,153 1111,459 258,307 399,645 423,1017 4,19 7,38 7,57 0,20 0,39 0,58 0,92 -6,200 -18,326 -12,125 -42,255 -91,390 -67,198 -186,384 -358,557 -171,174 -428,290 -770,348 -19,0 -40,1 -61,3 -22,2 -45,4 -69,4 -24,0 -47,1 -69,3 -22,3 -42,4 -61,4 -34,0 -69,-1 -105,-4 -36,-2 -71,-6 -105,-10 -145,-20 -283,-60 -416,-120 -133,-60 -247,-153 -344,-278l0 -253c25,24 55,51 91,83 36,31 76,61 119,90 68,48 144,97 228,145 84,48 170,84 257,108 43,15 85,26 126,33 41,7 81,11 120,11 5,0 9,0 14,0 5,0 10,-3 15,-8 5,0 8,0 11,0 2,0 3,0 3,0 10,0 18,-1 25,-3 8,-3 14,-4 19,-4 342,-43 623,-188 842,-434 220,-246 329,-559 329,-940l0 -116c0,-62 -6,-130 -18,-202 -12,-73 -30,-145 -54,-217 -72,-212 -205,-408 -398,-586 -193,-179 -460,-268 -803,-268 -361,0 -642,115 -842,344 -200,229 -313,522 -337,879l0 3168z"/>
   <path id="15" class="fil3 str0" d="M14051 24191l0 882 1135 0 0 254 -1135 0 0 1952c0,213 63,361 188,445 125,85 263,139 412,163 44,5 87,8 130,11 44,2 85,3 123,3 10,0 21,0 33,0 12,0 25,0 40,0 14,0 29,-1 43,-3 15,-3 27,-4 36,-4 29,0 54,-1 76,-3 22,-3 40,-4 54,-4l0 253 -672 0c-20,0 -38,0 -54,0 -17,0 -36,-2 -55,-7 -164,-24 -314,-104 -452,-239 -137,-135 -206,-340 -206,-615l0 -3088 304 0z"/>
   <path id="16" class="fil3 str0" d="M15859 23583l0 1895c96,-154 242,-273 438,-358 195,-84 401,-126 618,-126 10,0 19,0 29,0 10,0 19,0 29,0 284,14 545,116 781,304 236,188 354,487 354,896l0 1946 -253 0 0 -1794c0,-308 -73,-572 -220,-792 -147,-219 -363,-329 -648,-329l-115 0c-367,0 -627,111 -782,333 -154,222 -231,501 -231,839l0 1743 -260 0 0 -4557 260 0z"/>
   <path id="17" class="fil3 str0" d="M21175 25681c-101,-121 -233,-219 -394,-297 -162,-77 -327,-123 -496,-137 -24,-5 -47,-7 -68,-7 -22,0 -42,0 -62,0 -5,0 -11,0 -18,0 -7,0 -13,0 -18,0 -260,5 -509,94 -745,267 -236,174 -405,454 -506,839 0,15 -1,30 -4,47 -2,17 -3,35 -3,55 -5,19 -9,37 -11,54 -3,17 -4,32 -4,47 0,58 4,118 11,181 7,62 20,125 40,188 58,241 171,463 340,665 168,203 385,321 651,355 14,0 30,1 47,3 17,3 32,6 47,11 48,5 95,10 141,15 46,4 90,7 134,7 400,0 696,-114 889,-340 193,-227 321,-550 383,-969l268 0c0,501 -158,884 -474,1150 -316,265 -671,397 -1066,397 -54,0 -107,-2 -160,-7 -53,-5 -106,-12 -159,-21 -169,-29 -336,-86 -502,-170 -167,-85 -322,-195 -467,-330 -10,-14 -20,-30 -32,-47 -13,-16 -23,-35 -33,-54 -87,-135 -165,-294 -235,-477 -70,-183 -105,-374 -105,-572 0,-82 9,-167 25,-256 17,-90 43,-178 76,-264 44,-111 103,-221 178,-329 74,-109 169,-211 285,-308 101,-87 208,-157 318,-210 111,-53 222,-91 333,-115 63,-15 126,-26 188,-33 63,-7 126,-11 188,-11 314,0 602,71 865,214 262,142 442,297 538,466 5,10 9,18 11,26 3,7 6,13 11,18l-2199 1547 -152 -260 1946 -1338z"/>
   <path id="18" class="fil3 str0" d="M28017 25681c-101,-121 -232,-219 -394,-297 -161,-77 -327,-123 -495,-137 -24,-5 -47,-7 -69,-7 -22,0 -42,0 -62,0 -4,0 -10,0 -18,0 -7,0 -13,0 -18,0 -260,5 -508,94 -745,267 -236,174 -405,454 -506,839 0,15 -1,30 -4,47 -2,17 -3,35 -3,55 -5,19 -9,37 -11,54 -2,17 -4,32 -4,47 0,58 4,118 11,181 7,62 21,125 40,188 58,241 171,463 340,665 169,203 386,321 651,355 14,0 30,1 47,3 17,3 32,6 47,11 48,5 95,10 141,15 46,4 90,7 134,7 400,0 696,-114 889,-340 193,-227 321,-550 384,-969l267 0c0,501 -158,884 -474,1150 -315,265 -671,397 -1066,397 -53,0 -106,-2 -159,-7 -53,-5 -106,-12 -160,-21 -168,-29 -336,-86 -502,-170 -167,-85 -322,-195 -467,-330 -9,-14 -20,-30 -32,-47 -12,-16 -23,-35 -33,-54 -87,-135 -165,-294 -235,-477 -70,-183 -105,-374 -105,-572 0,-82 9,-167 26,-256 16,-90 42,-178 75,-264 44,-111 103,-221 178,-329 74,-109 170,-211 285,-308 102,-87 208,-157 319,-210 111,-53 221,-91 332,-115 63,-15 126,-26 188,-33 63,-7 126,-11 188,-11 314,0 602,71 865,214 263,142 442,297 539,466 4,10 8,18 10,26 3,7 6,13 11,18l-2198 1547 -152 -260 1945 -1338z"/>
   <path id="19" class="fil3 str0" d="M29413 25073l0 1895c0,357 101,627 304,810 202,184 424,275 665,275 15,0 31,0 47,0 17,0 33,-2 47,-7 237,-24 452,-129 648,-315 195,-185 293,-440 293,-763l0 -1895 253 0 0 1946c0,400 -127,700 -380,900 -253,201 -532,305 -835,315 -10,0 -18,0 -26,0 -7,0 -13,0 -18,0 -5,0 -8,0 -11,0 -2,0 -6,0 -10,0 -309,-5 -591,-107 -847,-307 -255,-200 -383,-503 -383,-908l0 -1946 253 0z"/>
   <path id="20" class="fil3 str0" d="M32639 29616l-260 0 0 -3168c0,-78 7,-159 21,-246 15,-87 36,-174 65,-261 82,-231 231,-446 445,-643 215,-198 517,-307 908,-326 482,0 852,153 1110,459 258,307 399,645 423,1017 5,19 7,38 7,57 0,20 0,39 0,58 0,92 -6,200 -18,326 -12,125 -42,255 -90,390 -68,198 -187,384 -358,557 -171,174 -428,290 -770,348 -20,0 -40,1 -62,3 -21,2 -44,4 -69,4 -24,0 -47,1 -68,3 -22,3 -42,4 -62,4 -33,0 -68,-1 -105,-4 -36,-2 -71,-6 -104,-10 -145,-20 -284,-60 -416,-120 -133,-60 -247,-153 -344,-278l0 -253c24,24 54,51 90,83 37,31 76,61 120,90 67,48 143,97 228,145 84,48 170,84 256,108 44,15 86,26 127,33 41,7 81,11 119,11 5,0 10,0 15,0 5,0 9,-3 14,-8 5,0 9,0 11,0 3,0 4,0 4,0 9,0 18,-1 25,-3 7,-3 13,-4 18,-4 342,-43 623,-188 843,-434 219,-246 329,-559 329,-940l0 -116c0,-62 -6,-130 -18,-202 -12,-73 -30,-145 -54,-217 -73,-212 -205,-408 -398,-586 -193,-179 -461,-268 -803,-268 -362,0 -643,115 -843,344 -200,229 -312,522 -336,879l0 3168z"/>
   <path id="21" class="fil3 str0" d="M36241 23583l0 1895c96,-154 242,-273 437,-358 196,-84 402,-126 619,-126 9,0 19,0 29,0 9,0 19,0 29,0 284,14 545,116 781,304 236,188 354,487 354,896l0 1946 -253 0 0 -1794c0,-308 -73,-572 -221,-792 -147,-219 -362,-329 -647,-329l-116 0c-366,0 -626,111 -781,333 -154,222 -231,501 -231,839l0 1743 -261 0 0 -4557 261 0z"/>
   <path id="22" class="fil3 str0" d="M40588 24972c511,0 895,170 1153,510 258,340 387,717 387,1132 0,395 -136,756 -408,1081 -273,326 -672,489 -1197,489l-87 7c-444,-15 -790,-187 -1038,-517 -248,-331 -373,-694 -373,-1089 0,-14 0,-29 0,-43 0,-15 0,-29 0,-44 20,-371 157,-713 413,-1027 255,-313 639,-480 1150,-499zm-102 2966c5,0 10,0 15,0 5,0 10,2 14,7 5,0 9,0 11,0 3,0 4,0 4,0 9,0 18,1 25,3 7,3 13,4 18,4 391,0 692,-130 904,-391 213,-260 323,-544 333,-853 0,-10 0,-18 0,-25 0,-8 0,-14 0,-18l0 -102c0,-14 0,-29 0,-43 0,-15 0,-29 0,-43 -19,-304 -125,-584 -318,-839 -193,-256 -461,-393 -803,-413l-58 0c-424,0 -749,135 -973,405 -224,270 -346,567 -365,890 0,14 0,28 0,40 0,12 0,25 0,40 0,4 0,9 0,14 0,5 0,7 0,7 5,309 107,594 307,857 201,263 496,416 886,460z"/>
   <path id="23" class="fil3 str0" d="M43018 25073l0 557c82,-144 193,-260 333,-347 139,-87 284,-144 434,-173 53,-15 104,-25 155,-29 51,-5 100,-8 148,-8l167 0 0 254 -116 0c-294,0 -554,102 -781,307 -227,205 -340,515 -340,929l0 1577 -253 0 0 -3067 253 0z"/>
   <path id="24" class="fil3 str0" d="M45079 25073l0 3067 -260 0 0 -3067 260 0zm51 -882c0,77 -21,131 -62,163 -41,31 -88,47 -141,47 -53,0 -101,-16 -144,-47 -44,-32 -65,-86 -65,-163 0,-77 21,-134 65,-170 43,-36 91,-54 144,-54 53,0 100,18 141,54 41,36 62,93 62,170z"/>
   <path id="25" class="fil3 str0" d="M47958 25023l0 253 -268 0c-516,0 -900,133 -1153,398 -253,265 -380,557 -380,875 0,14 0,28 0,40 0,12 0,25 0,39 19,324 155,620 409,890 253,270 601,405 1045,405 33,0 70,-2 108,-7 39,-5 80,-10 123,-15 5,0 10,0 15,0 4,0 9,0 14,0 15,-4 29,-8 43,-10 15,-3 29,-4 44,-4l0 253c-19,0 -42,1 -69,4 -26,2 -52,3 -76,3 -14,0 -28,0 -40,0 -12,0 -22,3 -32,8 -19,0 -37,0 -54,0 -17,0 -33,0 -47,0 -92,0 -191,-5 -297,-15 -106,-10 -212,-29 -318,-58 -275,-67 -527,-208 -756,-423 -229,-214 -351,-563 -365,-1045 0,-598 164,-1010 492,-1237 327,-226 689,-349 1085,-369 19,0 38,0 57,0 20,0 39,0 58,0 29,0 59,2 91,4 31,2 61,4 90,4 29,0 59,1 90,3 32,3 62,4 91,4z"/>
   <polygon id="26" class="fil3 str0" points="52211,23533 52211,28140 51950,28140 51950,23533 "/>
   <path id="27" class="fil3 str0" d="M55596 25681c-102,-121 -233,-219 -395,-297 -161,-77 -326,-123 -495,-137 -24,-5 -47,-7 -69,-7 -21,0 -42,0 -61,0 -5,0 -11,0 -18,0 -7,0 -13,0 -18,0 -261,5 -509,94 -745,267 -237,174 -405,454 -507,839 0,15 -1,30 -3,47 -3,17 -4,35 -4,55 -5,19 -8,37 -11,54 -2,17 -3,32 -3,47 0,58 3,118 11,181 7,62 20,125 39,188 58,241 172,463 340,665 169,203 386,321 651,355 15,0 30,1 47,3 17,3 33,6 47,11 48,5 96,10 141,15 46,4 91,7 134,7 400,0 697,-114 890,-340 193,-227 320,-550 383,-969l268 0c0,501 -158,884 -474,1150 -316,265 -671,397 -1067,397 -53,0 -106,-2 -159,-7 -53,-5 -106,-12 -159,-21 -169,-29 -336,-86 -503,-170 -166,-85 -322,-195 -466,-330 -10,-14 -21,-30 -33,-47 -12,-16 -23,-35 -32,-54 -87,-135 -166,-294 -235,-477 -70,-183 -105,-374 -105,-572 0,-82 8,-167 25,-256 17,-90 42,-178 76,-264 43,-111 102,-221 177,-329 75,-109 170,-211 286,-308 101,-87 207,-157 318,-210 111,-53 222,-91 333,-115 62,-15 125,-26 188,-33 62,-7 125,-11 188,-11 313,0 601,71 864,214 263,142 443,297 539,466 5,10 8,18 11,26 2,7 6,13 11,18l-2199 1547 -152 -260 1946 -1338z"/>
   <path id="28" class="fil3 str0" d="M59096 27533l0 303c-120,102 -261,182 -423,243 -161,60 -326,95 -495,105 -10,0 -21,0 -33,0 -12,0 -23,0 -32,0l-152 7c-415,-39 -723,-187 -926,-445 -202,-258 -330,-539 -383,-843 -10,-58 -17,-117 -22,-177 -5,-60 -7,-119 -7,-177 0,-10 0,-19 0,-29 0,-10 2,-17 7,-22 0,-5 0,-9 0,-14 0,-5 0,-10 0,-15 0,-14 1,-27 4,-39 2,-12 3,-23 3,-33 39,-391 150,-692 333,-904 183,-212 383,-357 600,-434 77,-29 155,-51 232,-65 77,-15 152,-22 224,-22 487,0 847,107 1081,322 234,215 382,452 445,712 19,68 32,134 40,199 7,65 11,129 11,192l0 1743 -254 0 0 -1692c0,-319 -77,-564 -231,-738 -154,-174 -323,-299 -506,-376 -97,-39 -192,-66 -286,-83 -94,-17 -177,-26 -250,-26 -255,0 -464,64 -625,192 -162,128 -288,269 -380,423 -63,116 -108,224 -137,326 -29,101 -44,178 -44,231 0,10 0,21 0,33 0,12 0,25 0,39 0,0 0,3 0,8 0,4 0,7 0,7 -4,14 -7,29 -7,43 0,15 0,27 0,36 0,502 124,869 373,1103 248,234 522,351 820,351 39,0 76,-2 113,-7 36,-5 73,-10 112,-15 149,-28 295,-84 437,-166 143,-82 262,-181 358,-296z"/>
   <path id="29" class="fil3 str0" d="M60651 29616l-260 0 0 -3168c0,-78 7,-159 22,-246 14,-87 36,-174 65,-261 82,-231 230,-446 445,-643 214,-198 517,-307 907,-326 482,0 853,153 1111,459 258,307 399,645 423,1017 4,19 7,38 7,57 0,20 0,39 0,58 0,92 -6,200 -18,326 -12,125 -42,255 -91,390 -67,198 -186,384 -358,557 -171,174 -428,290 -770,348 -19,0 -40,1 -61,3 -22,2 -45,4 -69,4 -24,0 -47,1 -69,3 -22,3 -42,4 -61,4 -34,0 -69,-1 -105,-4 -36,-2 -71,-6 -105,-10 -145,-20 -283,-60 -416,-120 -133,-60 -247,-153 -344,-278l0 -253c25,24 55,51 91,83 36,31 76,61 119,90 68,48 144,97 228,145 84,48 170,84 257,108 43,15 85,26 126,33 41,7 81,11 120,11 5,0 9,0 14,0 5,0 10,-3 15,-8 5,0 8,0 11,0 2,0 3,0 3,0 10,0 18,-1 25,-3 8,-3 14,-4 19,-4 342,-43 623,-188 842,-434 220,-246 329,-559 329,-940l0 -116c0,-62 -6,-130 -18,-202 -12,-73 -30,-145 -54,-217 -72,-212 -205,-408 -398,-586 -193,-179 -460,-268 -803,-268 -361,0 -642,115 -842,344 -200,229 -313,522 -337,879l0 3168z"/>
  </g>
 </g>
</svg>
