<?xml version="1.0" encoding="UTF-8"?>
<!DOCTYPE svg PUBLIC "-//W3C//DTD SVG 1.1//EN" "http://www.w3.org/Graphics/SVG/1.1/DTD/svg11.dtd">
<!-- Creator: CorelDRAW X7 -->
<svg xmlns="http://www.w3.org/2000/svg" xml:space="preserve" width="100" height="100" version="1.1" style="shape-rendering:geometricPrecision; text-rendering:geometricPrecision; image-rendering:optimizeQuality; fill-rule:evenodd; clip-rule:evenodd"
viewBox="0 0 3463 1792"
 xmlns:xlink="http://www.w3.org/1999/xlink">
 <defs>
  <style type="text/css">
   <![CDATA[
    .fil1 {fill:#009846}
    .fil2 {fill:#0F7DAE}
    .fil0 {fill:url(#id0)}
   ]]>
  </style>
  <linearGradient id="id0" gradientUnits="userSpaceOnUse" x1="26.6451" y1="1672.22" x2="2163.14" y2="0">
   <stop offset="0" style="stop-opacity:1; stop-color:#009846"/>
   <stop offset="1" style="stop-opacity:1; stop-color:#FFED00"/>
  </linearGradient>
 </defs>
 <g id="Layer_x0020_1">
  <metadata id="CorelCorpID_0Corel-Layer"/>
  <g id="_556839671680">
   <path class="fil0" d="M2 0l1484 1083c0,0 115,83 246,32 15,-5 39,-16 52,-24 31,-19 43,-46 69,-60 29,-17 47,-10 70,14 27,29 67,61 120,73 0,0 80,8 116,9 40,41 -124,152 -199,127 0,0 -104,-36 -211,23 0,0 -40,20 -63,47l-96 136c-14,19 -31,16 -54,9l-1094 -434c-28,-11 -32,-52 -41,-80l1010 449c20,9 27,-15 3,-26l-1100 -503c0,0 -46,-49 -67,-110l1151 562c32,15 39,-21 7,-38l-1217 -628c0,0 -96,-83 -118,-208l1329 759c52,30 60,-10 19,-34l-1380 -839c0,0 -48,-233 -36,-339z"/>
   <path class="fil1" d="M1878 1790l-2 -3 -62 -61c-8,-7 -5,-4 0,-12l67 -96c0,0 -50,-40 -9,-100 2,-3 3,-5 5,-7 5,-7 4,-5 13,-5l395 0c24,0 22,-4 10,20 -10,22 -29,58 -61,98 -5,7 -5,6 -13,10l-332 154 -6 3c-4,1 -2,1 -5,-1z"/>
   <path class="fil2" d="M3463 212l-1197 880c0,0 -77,270 -455,230 -4,0 -3,1 -6,4l-191 192c-4,4 -6,7 -1,12l134 132c17,18 33,-8 42,-22 4,-6 2,-4 -1,-11 -9,-19 -29,-78 -2,-157 6,-17 4,-14 21,-14l515 0 701 -211c0,0 33,-43 40,-80l-698 234c-43,15 -41,-12 -5,-25l791 -289c0,0 52,-50 66,-110l-842 347c-51,21 -47,-19 -10,-36l911 -414c0,0 102,-92 118,-208l-1031 549c-51,27 -61,-11 -13,-39l1076 -625c0,0 44,-151 37,-339z"/>
  </g>
 </g>
</svg>
